<svg t="1731774288938" class="icon" viewBox="0 0 1024 1024" version="1.1" xmlns="http://www.w3.org/2000/svg" p-id="7235" width="200" height="200"><path d="M 512 931.346 c -12.2345 0 -24.4688 -3.375 -34.5938 -10.125 L 154.25 719.984 C 136.953 709.015 126.406 690.453 126.406 670.203 V 343.673 c 0 -20.6719 10.9687 -39.6563 28.6875 -50.2031 L 478.672 100.672 c 10.125 -5.90625 21.9375 -9.28125 33.75 -9.28125 s 23.625 3.375 33.75 9.28125 l 323.156 193.219 c 17.7188 10.5469 28.6875 29.9531 28.6875 50.2031 v 326.531 c 0 20.25 -10.5469 38.8125 -27.8438 49.7813 L 546.594 921.219 c -10.5469 6.75001 -22.3594 10.125 -34.5938 10.125 Z M 186.734 669.359 l 322.313 200.391 c 1.26563 0.84375 2.10938 0.84375 2.95313 0.84375 s 1.6875 0 2.95313 -0.84375 l 322.734 -200.391 V 344.937 L 515.375 152.141 c -1.26563 -0.84375 -2.10938 -0.84375 -2.95313 -0.84375 s -1.6875 0 -2.95313 0.84375 l -322.734 192.797 v 324.422 Z" p-id="7236"></path><path d="M 511.578 838.953 c -16.875 0 -30.375 -13.9219 -30.375 -30.7969 l 0.421875 -213.047 C 481.625 578.234 495.125 564.734 512 564.734 s 30.375 13.9219 30.375 30.7969 l -0.421875 213.047 c 0 16.875 -13.5001 30.375 -30.375 30.375 Z m -71.7188 -300.375 c -5.48438 0 -10.9687 -1.26563 -15.6094 -4.64063 L 217.109 408.219 c -14.3438 -8.85938 -18.9844 -27.4219 -10.125 -41.7657 c 8.85938 -14.3438 27.4219 -18.9844 41.7657 -10.125 l 207.141 125.719 c 14.3438 8.85938 18.9844 27.4219 10.125 41.7657 c -5.48438 9.28125 -15.6094 14.7655 -26.1563 14.7655 Z m 142.172 0 c -10.125 0 -20.25 -5.0625 -26.1563 -14.7655 c -8.85938 -14.3438 -4.21875 -33.3281 10.125 -41.7657 L 773.563 355.906 c 14.3438 -8.85938 33.3281 -4.21875 41.7657 10.125 c 8.85938 14.3438 4.21875 33.3281 -10.125 41.7657 L 598.063 533.516 c -5.0625 3.375 -10.5469 5.0625 -16.0313 5.0625 Z m -212.625 -208.828 c 0 20.6719 16.875 37.125 37.125 37.125 c 20.6719 0 37.125 -16.875 37.125 -37.125 S 427.625 292.625 406.953 292.625 c -20.6719 0 -37.5469 16.4531 -37.5469 37.125 Z m -75.0938 295.313 c 0 20.6719 16.875 37.125 37.125 37.125 s 37.125 -16.875 37.125 -37.125 c 0 -20.6719 -16.875 -37.125 -37.125 -37.125 s -37.125 16.4531 -37.125 37.125 Z m 281.391 -295.313 c 0 20.6719 16.875 37.125 37.125 37.125 c 20.6719 0 37.125 -16.875 37.125 -37.125 s -16.875 -37.125 -37.125 -37.125 c -20.25 0 -37.125 16.4531 -37.125 37.125 Z m 11.3906 394.031 c 0 20.6719 16.875 37.125 37.125 37.125 s 37.125 -16.875 37.125 -37.125 c 0 -20.6719 -16.875 -37.125 -37.125 -37.125 s -37.125 16.4531 -37.125 37.125 Z m 78.0469 -98.7188 c 0 20.6719 16.875 37.125 37.125 37.125 s 37.125 -16.875 37.125 -37.125 c 0 -20.6719 -16.875 -37.125 -37.125 -37.125 s -37.125 16.4531 -37.125 37.125 Z m 78.4688 -99.1406 c 0 20.6719 16.875 37.125 37.125 37.125 c 20.6719 0 37.125 -16.875 37.125 -37.125 c 0 -20.6719 -16.875 -37.125 -37.125 -37.125 c -20.25 0 -37.125 16.875 -37.125 37.125 Z" p-id="7237"></path></svg>